<svg aria-hidden="true" style="position: absolute; width: 0; height: 0; overflow: hidden;" version="1.1" xmlns="http://www.w3.org/2000/svg" xmlns:xlink="http://www.w3.org/1999/xlink">
<defs>

  <symbol id="cloudy" viewBox="0 0 63 32">
  <title>icon1</title>
  <path d="M55.694 15.492c-0.282-8.615-7.334-15.492-15.992-15.492-5.803 0-10.885 3.090-13.69 7.714l-0.040 0.071c-1.205-0.427-2.594-0.673-4.040-0.673-4.53 0-8.496 2.418-10.677 6.034l-0.031 0.056c-0.527-0.104-1.133-0.163-1.752-0.163-5.236 0-9.481 4.245-9.481 9.481s4.245 9.481 9.481 9.481c0.003 0 0.007 0 0.010 0h45.036c4.58-0.002 8.293-3.716 8.293-8.296 0-4.166-3.070-7.614-7.072-8.207l-0.045-0.005z"></path>
  </symbol>

  <symbol id="lightning" viewBox="0 0 26 32">
  <title>icon2</title>
  <path d="M21.79 5.603c-0.001 0-0.002 0-0.003 0-0.552 0-1.080 0.103-1.566 0.29l0.030-0.010c-0.924-3.393-3.926-5.883-7.488-5.883-3.532 0-6.514 2.448-7.465 5.801-0.373-0.126-0.804-0.198-1.251-0.198-2.235 0-4.047 1.812-4.047 4.047s1.812 4.047 4.047 4.047c0.921 0 1.77-0.307 2.45-0.825l-0.010 0.007c1.416 2.006 3.7 3.309 6.276 3.309 2.454 0 4.642-1.182 6.069-3.027 0.775 0.719 1.816 1.159 2.96 1.159 2.407 0 4.358-1.951 4.358-4.358s-1.951-4.358-4.358-4.358c-0 0-0.001 0-0.001 0h0z"></path>
  <path d="M14.245 17.432l-6.97 8.843 3.659 0.676-1.558 5.049 6.759-8.852-3.45-0.658 1.561-5.058z"></path>
  </symbol>

  <symbol id="sunny" viewBox="0 0 32 32">
  <title>icon3</title>
  <path d="M25.546 16.034c0 5.291-4.289 9.58-9.58 9.58s-9.58-4.289-9.58-9.58c0-5.291 4.289-9.58 9.58-9.58s9.58 4.289 9.58 9.58z"></path>
  <path d="M4.974 11.325c0.096 0.338 0.34 0.606 0.655 0.732l0.007 0.003c0.927-2.292 2.713-4.074 4.949-4.974l0.060-0.021c-0.114-0.381-0.417-0.672-0.797-0.767l-0.008-0.002-4.897-1.226c-0.082-0.021-0.176-0.034-0.273-0.034-0.622 0-1.126 0.504-1.126 1.126 0 0.11 0.016 0.216 0.045 0.317l-0.002-0.008z"></path>
  <path d="M19.012 5.605c0.055-0.128 0.088-0.277 0.088-0.433 0-0.253-0.084-0.486-0.226-0.673l0.002 0.003-3.018-4.048c-0.207-0.276-0.534-0.453-0.902-0.453-0.461 0-0.857 0.277-1.031 0.673l-0.003 0.007-1.996 4.637c-0.059 0.131-0.093 0.285-0.093 0.446 0 0.199 0.053 0.386 0.144 0.548l-0.003-0.005c1.247-0.707 2.74-1.124 4.329-1.124 0.968 0 1.9 0.155 2.772 0.44l-0.063-0.018z"></path>
  <path d="M25.087 10.753c0.374-0.131 0.653-0.445 0.731-0.832l0.001-0.007 1.001-4.948c0.014-0.067 0.022-0.144 0.022-0.223 0-0.622-0.504-1.126-1.126-1.126-0.128 0-0.251 0.021-0.366 0.061l0.008-0.002-4.786 1.607c-0.332 0.112-0.59 0.367-0.702 0.691l-0.002 0.008c2.343 0.825 4.198 2.534 5.195 4.717l0.023 0.056z"></path>
  <path d="M31.369 14.629l-4.415-2.444c-0.157-0.090-0.344-0.142-0.544-0.142-0.161 0-0.313 0.034-0.451 0.095l0.007-0.003c0.463 1.042 0.733 2.258 0.733 3.537s-0.27 2.495-0.755 3.594l0.022-0.057c0.154 0.086 0.338 0.136 0.533 0.136 0.214 0 0.415-0.061 0.585-0.166l-0.005 0.003 4.326-2.602c0.33-0.2 0.547-0.557 0.547-0.966 0-0.422-0.233-0.791-0.577-0.983l-0.006-0.003z"></path>
  <path d="M26.348 21.269c-0.097-0.338-0.341-0.605-0.656-0.731l-0.007-0.003c-0.923 2.295-2.706 4.079-4.94 4.983l-0.060 0.021c0.115 0.381 0.418 0.671 0.799 0.766l0.008 0.002 4.9 1.217c0.082 0.021 0.175 0.033 0.272 0.033 0.621 0 1.125-0.504 1.125-1.125 0-0.111-0.016-0.218-0.046-0.32l0.002 0.008z"></path>
  <path d="M12.901 26.072c-0.080 0.15-0.127 0.329-0.127 0.518 0 0.221 0.064 0.426 0.174 0.599l-0.003-0.005 2.667 4.285c0.202 0.321 0.554 0.531 0.955 0.531 0.428 0 0.8-0.239 0.99-0.59l0.003-0.006 2.376-4.455c0.084-0.153 0.134-0.335 0.134-0.529 0-0.167-0.037-0.325-0.103-0.467l0.003 0.007c-1.076 0.499-2.336 0.789-3.664 0.789-1.229 0-2.399-0.249-3.464-0.699l0.058 0.022z"></path>
  <path d="M6.425 20.646c-0.386 0.105-0.683 0.403-0.787 0.781l-0.002 0.008-1.34 4.868c-0.026 0.090-0.041 0.193-0.041 0.299 0 0.621 0.504 1.125 1.125 1.125 0.101 0 0.199-0.013 0.293-0.038l-0.008 0.002 4.888-1.276c0.341-0.089 0.614-0.326 0.748-0.638l0.003-0.007c-2.265-0.977-4.009-2.801-4.86-5.062l-0.020-0.061z"></path>
  <path d="M6.241 19.99c-0.651-1.206-1.034-2.64-1.034-4.163 0-1.035 0.177-2.028 0.501-2.951l-0.019 0.062c-0.134-0.062-0.291-0.098-0.456-0.098-0.245 0-0.471 0.079-0.655 0.213l0.003-0.002-4.108 2.93c-0.287 0.207-0.473 0.54-0.473 0.917 0 0.452 0.267 0.842 0.652 1.021l0.007 0.003 4.593 2.094c0.137 0.066 0.299 0.104 0.469 0.104 0.19 0 0.369-0.048 0.526-0.132l-0.006 0.003z"></path>
  </symbol>

  <symbol id="partlycloudy" viewBox="0 0 48 32">
  <title>icon4</title>
  <path d="M42.372 19.953c-0.206-6.287-5.352-11.305-11.67-11.305-4.235 0-7.943 2.255-9.99 5.629l-0.029 0.052c-0.879-0.311-1.893-0.491-2.948-0.491-3.306 0-6.2 1.764-7.791 4.403l-0.023 0.041c-0.384-0.076-0.826-0.119-1.279-0.119-3.821 0-6.919 3.098-6.919 6.919s3.098 6.919 6.919 6.919c0.003 0 0.005 0 0.008 0h32.864c3.342-0.001 6.051-2.711 6.051-6.054 0-3.040-2.24-5.556-5.16-5.989l-0.033-0.004z"></path>
  <path d="M6.813 17.703c1.873-2.429 4.659-4.36 8.034-5.301 1.28-0.375 2.751-0.591 4.272-0.591 0.819 0 1.624 0.063 2.409 0.183l-0.088-0.011c-0.068-1.061-0.329-2.046-0.747-2.942l0.021 0.050 2.529-1.461-0.61-1.057-2.508 1.448c-0.502-0.764-1.098-1.416-1.783-1.961l-0.017-0.013 2.476-3.056-0.948-0.769-2.543 3.138c-0.753-0.441-1.63-0.773-2.563-0.947l-0.051-0.008v-4.406h-1.22v4.278c-0.086 0-0.173 0-0.26 0-0.003 0-0.007 0-0.010 0-1.13 0-2.207 0.229-3.187 0.642l0.054-0.020-1.232-4.29-1.173 0.337 1.295 4.507c-0.854 0.522-1.578 1.161-2.176 1.906l-0.013 0.016-3.54-3.102-0.804 0.915 3.652 3.199c-0.651 1.104-1.054 2.425-1.1 3.836l-0 0.013-4.664-1.249-0.317 1.18 5.035 1.351c0.108 0.87 0.336 1.662 0.669 2.395l-0.021-0.051-4.445 1.279 0.338 1.173 4.701-1.352c0.182 0.282 0.359 0.524 0.548 0.754l-0.011-0.014z"></path>
  </symbol>

  <symbol id="rainy" viewBox="0 0 37 32">
  <title>icon5</title>
  <path d="M36.683 14.439c0-0 0-0.001 0-0.002 0-2.33-1.856-4.226-4.17-4.291l-0.006-0c-0.78-2.7-3.138-4.667-5.933-4.683-1.295-3.224-4.144-5.463-7.452-5.463-3.57 0-6.607 2.61-7.73 6.252-2.582 0.133-4.738 1.815-5.568 4.129l-0.014 0.044c-0.452-0.177-0.976-0.279-1.523-0.279-2.371 0-4.293 1.922-4.293 4.293 0 2.235 1.709 4.072 3.891 4.274l0.017 0.001v0.018l28.878-0.018c2.197-0.206 3.902-2.041 3.902-4.274v-0z"></path>
  <path d="M8.825 22.315c-0.151 0.29-0.24 0.633-0.24 0.997 0 1.213 0.983 2.196 2.196 2.196 0.849 0 1.585-0.481 1.95-1.186l0.006-0.012c0.55-1.081-0.53-2.185 1.233-4.572 0.72-0.977-4.595 1.497-5.145 2.577z"></path>
  <path d="M20.532 22.565c-0.151 0.29-0.24 0.633-0.24 0.997 0 1.213 0.983 2.196 2.196 2.196 0.849 0 1.585-0.481 1.95-1.186l0.006-0.012c0.55-1.081-0.53-2.185 1.233-4.572 0.72-0.977-4.595 1.498-5.145 2.577z"></path>
  <path d="M15.861 28.809c-0.151 0.29-0.24 0.633-0.24 0.997 0 1.213 0.983 2.196 2.196 2.196 0.849 0 1.585-0.481 1.95-1.186l0.006-0.012c0.55-1.081-0.53-2.185 1.233-4.572 0.72-0.977-4.595 1.498-5.145 2.577z"></path>
  <path d="M5.703 28.809c-0.151 0.29-0.24 0.633-0.24 0.997 0 1.213 0.983 2.196 2.196 2.196 0.849 0 1.585-0.481 1.95-1.186l0.006-0.012c0.55-1.081-0.53-2.185 1.233-4.572 0.72-0.977-4.595 1.498-5.145 2.577z"></path>
  </symbol>
</defs>
</svg>
