<svg id="Layer_1" data-name="Layer 1" xmlns="http://www.w3.org/2000/svg" viewBox="0 0 405.22 405.85">
  <title>icon3</title>
  <defs>
      <style>
          @keyframes spin {
            from {
                transform: rotateZ(0deg);
            }
            to {
                transform: rotateZ(360deg);
            }
          }
          g {
            transform-origin: 50% 50%;
            animation: spin 10s linear forwards infinite;
          }
      </style>
  </defs>
  <g>
    <circle cx="202.5" cy="203.35" r="121.5"/>
    <path d="M459.08,448.78a14.05,14.05,0,0,0,8.4,9.32A112.83,112.83,0,0,1,531,394.75,14.14,14.14,0,0,0,520.79,385l-62.11-15.55a14.28,14.28,0,0,0-17.2,17.77Z" transform="translate(-396 -305.15)"/>
    <path d="M637.13,376.24a14.15,14.15,0,0,0-1.73-14l-38.28-51.34a14.27,14.27,0,0,0-24.55,2.89l-25.32,58.81a14.09,14.09,0,0,0,.61,12.54A112.86,112.86,0,0,1,637.13,376.24Z" transform="translate(-396 -305.15)"/>
    <path d="M714.18,441.53a14.14,14.14,0,0,0,9.29-10.64l12.7-62.76a14.28,14.28,0,0,0-18.54-16.37l-60.7,20.38A14.09,14.09,0,0,0,648,381,112.82,112.82,0,0,1,714.18,441.53Z" transform="translate(-396 -305.15)"/>
    <path d="M793.85,490.69l-56-31a14.08,14.08,0,0,0-12.53-.63,112.89,112.89,0,0,1,0,89.72,14.13,14.13,0,0,0,14.12-.34l54.86-33A14.27,14.27,0,0,0,793.85,490.69Z" transform="translate(-396 -305.15)"/>
    <path d="M730.17,574.9a14.06,14.06,0,0,0-8.42-9.31,112.85,112.85,0,0,1-63.41,63.47,14.16,14.16,0,0,0,10.23,9.74l62.14,15.43a14.27,14.27,0,0,0,17.16-17.8Z" transform="translate(-396 -305.15)"/>
    <path d="M559.62,635.82a14.15,14.15,0,0,0,.56,14.11L594,704.27a14.27,14.27,0,0,0,24.71-.83l30.14-56.5a14.1,14.1,0,0,0,.43-12.54A112.85,112.85,0,0,1,559.62,635.82Z" transform="translate(-396 -305.15)"/>
    <path d="M477.49,567a14.13,14.13,0,0,0-10,10l-17,61.74a14.27,14.27,0,0,0,17.37,17.6l62-16.18a14.11,14.11,0,0,0,9.52-8.18A112.87,112.87,0,0,1,477.49,567Z" transform="translate(-396 -305.15)"/>
    <path d="M475.15,558.68a112.84,112.84,0,0,1-7-89.44,14.13,14.13,0,0,0-14.05,1.43L402,507.83a14.27,14.27,0,0,0,2.36,24.61L462.61,559A14.09,14.09,0,0,0,475.15,558.68Z" transform="translate(-396 -305.15)"/>
  </g>
</svg>
