<svg id="Layer_1" data-name="Layer 1" xmlns="http://www.w3.org/2000/svg" viewBox="0 0 423 369">
  <title>icon5</title>
  <defs>
      <style>
          path {
            animation: draw 3s linear forwards;
            stroke: black;
            stroke-dasharray: 1100;
            fill-opacity: 0;
            stroke-dashoffset: 1100;
          }
          @keyframes draw {
            80% {
              stroke-dashoffset: 0;
              fill-opacity: 0;
            } 100% {
              fill-opacity: 1;
            }
          }
      </style>
  </defs>
  <g>
    <path d="M819,472.5A49.5,49.5,0,0,0,770.84,423c-9-31.14-36.19-53.82-68.41-54-14.93-37.18-47.79-63-85.93-63-41.17,0-76.19,30.1-89.14,72.09A72,72,0,0,0,463,426.21a49.5,49.5,0,1,0-22,95.58V522H774v-.21A49.5,49.5,0,0,0,819,472.5Z" transform="translate(-396 -306)"/>
    <path d="M497.76,563.32a25.31,25.31,0,0,0,45.11,23c6.34-12.46-6.11-25.2,14.22-52.72C565.39,522.33,504.1,550.86,497.76,563.32Z" transform="translate(-396 -306)"/>
    <path d="M632.76,566.2a25.31,25.31,0,0,0,45.11,23c6.34-12.46-6.11-25.2,14.22-52.72C700.39,525.21,639.1,553.75,632.76,566.2Z" transform="translate(-396 -306)"/>
    <path d="M578.9,638.2a25.31,25.31,0,0,0,45.11,23c6.34-12.46-6.11-25.2,14.22-52.72C646.53,597.21,585.24,625.75,578.9,638.2Z" transform="translate(-396 -306)"/>
    <path d="M461.76,638.2a25.31,25.31,0,0,0,45.11,23c6.34-12.46-6.11-25.2,14.22-52.72C529.39,597.21,468.1,625.75,461.76,638.2Z" transform="translate(-396 -306)"/>
  </g>
</svg>
