<svg id="Layer_1" data-name="Layer 1" xmlns="http://www.w3.org/2000/svg" viewBox="0 0 495 333">
  <title>icon4</title>
  <g>
    <path d="M818.93,495.64a121.5,121.5,0,0,0-225.7-58.53,94.62,94.62,0,0,0-112,41.13A72,72,0,1,0,468,621H810a63,63,0,0,0,8.93-125.36Z" transform="translate(-378 -288)"/>
    <path d="M448.9,472.22c19.49-25.28,48.48-45.37,83.6-55.16a163.63,163.63,0,0,1,68.61-4.36,85.15,85.15,0,0,0-7.55-30.09l26.32-15.2-6.35-11-26.1,15.07a85.82,85.82,0,0,0-18.73-20.54l25.77-31.8-9.87-8-26.46,32.65a85.26,85.26,0,0,0-27.2-9.94V288h-12.7v44.52c-.9,0-1.8,0-2.71,0a85.38,85.38,0,0,0-32.71,6.47L470,294.35l-12.21,3.51,13.48,46.9a86.3,86.3,0,0,0-22.78,20l-36.84-32.28L403.28,342l38,33.29a85.2,85.2,0,0,0-11.45,40.05l-48.53-13L378,414.62l52.4,14.06a85.28,85.28,0,0,0,6.74,24.39l-46.26,13.31,3.52,12.21,48.92-14.07A84.25,84.25,0,0,0,448.9,472.22Z" transform="translate(-378 -288)"/>
  </g>
</svg>
